<svg viewBox="0 0 720 320" fill="none" xmlns="http://www.w3.org/2000/svg">
<ellipse cx="360" cy="291.2" rx="360" ry="28.8" fill="#E0EDFF"/>
<path d="M249.421 210.721V254.984H232.193V280.066H183.956V254.984H111.6V210.721L159.099 107.934H214.966L166.728 210.721H183.956V186.623H232.193V210.721H249.421Z" fill="#070707"/>
<path d="M412.886 258.18C395.33 275.393 373.755 284 348.159 284C322.564 284 300.906 275.393 283.186 258.18C265.63 240.803 256.853 219.41 256.853 194C256.853 168.59 265.63 147.279 283.186 130.066C300.906 112.689 322.564 104 348.159 104C373.755 104 395.33 112.689 412.886 130.066C430.606 147.279 439.466 168.59 439.466 194C439.466 219.41 430.606 240.803 412.886 258.18ZM317.888 224C325.927 231.869 336.018 235.803 348.159 235.803C360.301 235.803 370.309 231.869 378.185 224C386.224 215.967 390.244 205.967 390.244 194C390.244 182.033 386.224 172.115 378.185 164.246C370.309 156.213 360.301 152.197 348.159 152.197C336.018 152.197 325.927 156.213 317.888 164.246C310.012 172.115 306.075 182.033 306.075 194C306.075 205.967 310.012 215.967 317.888 224Z" fill="#070707"/>
<path d="M585.9 210.721V254.984H568.672V280.066H520.434V254.984H448.078V210.721L495.577 107.934H551.444L503.207 210.721H520.434V186.623H568.672V210.721H585.9Z" fill="#070707"/>
<path d="M308.551 82.5906L283.291 94.7944C281.221 95.6728 280.075 97.6142 280.732 99.1305L307.625 161.242C308.282 162.759 310.492 163.276 312.562 162.397L337.822 150.194C339.892 149.315 341.038 147.374 340.381 145.857L313.488 83.7455C312.832 82.2292 310.621 81.7121 308.551 82.5906Z" fill="#070707"/>
<path fill-rule="evenodd" clip-rule="evenodd" d="M298 61.9684L318.173 0L329.8 23.2843L358.224 12.652L355.728 41.6068L384 46.0879L327.73 83L327.745 52.6372L298 61.9684Z" fill="#3864FF"/>
</svg>
