<?xml version="1.0" standalone="no"?>
<!DOCTYPE svg PUBLIC "-//W3C//DTD SVG 1.1//EN" "http://www.w3.org/Graphics/SVG/1.1/DTD/svg11.dtd" >
<svg xmlns="http://www.w3.org/2000/svg">
<metadata>Generated by IcoMoon</metadata>
<defs>
<font id="icomoon" horiz-adv-x="1024">
<font-face units-per-em="1024" ascent="960" descent="-64" />
<missing-glyph horiz-adv-x="1024" />
<glyph unicode="&#x20;" horiz-adv-x="512" d="" />
<glyph unicode="&#xe900;" glyph-name="pva__delete" horiz-adv-x="896" d="M355.386 795.868c-0.001-0.008 0.001 0.007 0 0l-3.732-22.227c17.608 0.364 35.217 0.545 52.826 0.545 46.681 0 93.402-0.769 140.118-2.293l-4.027 23.796c-1.697 10.408-2.803 16.637-4.307 21.671-0.886 2.963-1.589 4.322-1.878 4.803-1.885 1.176-9.395 4.503-30.493 4.503h-111.787c-20.7 0-28.46-3.016-30.595-4.186-0.311-0.595-0.893-1.886-1.616-4.29-1.537-5.112-2.685-11.492-4.509-22.323zM360.842 822.025c0.014-0.010 0.156 0.078 0.383 0.29-0.284-0.174-0.397-0.28-0.383-0.29zM534.905 821.757c0.017 0.012-0.103 0.134-0.408 0.335 0.239-0.246 0.392-0.346 0.408-0.335zM642.694 767.588c64.781-3.57 129.504-8.573 194.042-14.968 26.374-2.614 45.645-26.12 43.027-52.5-2.611-26.381-26.118-45.647-52.499-43.032-140.55 13.928-281.902 21.099-422.785 21.099-82.861 0-165.731-4.184-248.616-12.557l-0.141-0.014-87.040-8.533c-26.383-2.587-49.868 16.705-52.454 43.087s16.704 49.868 43.088 52.454l86.97 8.527c35.787 3.613 71.576 6.476 107.368 8.588l7.062 42.051c0.18 1.071 0.371 2.234 0.567 3.439 2.819 17.28 7.778 47.683 28.316 70.973 24.767 28.085 61.404 36.466 102.508 36.466h111.787c41.822 0 78.36-9.146 102.92-37.447 20.494-23.617 25.317-54.004 28.020-71.035 0.162-1.019 0.316-1.99 0.466-2.909 0.007-0.046 0.015-0.092 0.022-0.138l7.373-43.549zM152.641 617.927c-26.455-1.708-46.516-24.538-44.809-50.993l27.733-429.654 0.103-1.478c1.103-15.77 2.401-34.31 5.916-51.763 3.705-18.4 10.453-38.97 24.721-57.542 30.262-39.398 80.378-53.165 144.733-53.165h273.92c64.359 0 114.471 13.766 144.737 53.165 14.266 18.573 21.011 39.142 24.717 57.542 3.52 17.453 4.813 35.994 5.92 51.763l0.083 1.216 27.75 429.917c1.709 26.455-18.355 49.285-44.806 50.993-26.458 1.708-49.286-18.354-50.995-44.809l-27.712-429.387c-0.006-0.045-0.006-0.090-0.013-0.134-1.216-17.395-2.189-29.933-4.333-40.608-2.061-10.202-4.589-15.206-6.746-18.016-2.592-3.373-13.918-15.642-68.602-15.642h-273.92c-54.684 0-66.008 12.269-68.599 15.642-2.159 2.81-4.691 7.814-6.746 18.016-2.149 10.675-3.117 23.213-4.337 40.608-0.003 0.045-0.006 0.090-0.009 0.134l-27.716 429.387c-1.708 26.455-24.538 46.516-50.992 44.809zM293.333 426.666c0-26.509 21.49-48 48-48h213.333c26.509 0 48 21.491 48 48s-21.491 48-48 48h-213.333c-26.51 0-48-21.49-48-48zM328.746 256c0-26.509 21.491-48 48-48h142.080c26.509 0 48 21.491 48 48s-21.491 48-48 48h-142.080c-26.509 0-48-21.491-48-48z" />
<glyph unicode="&#xe901;" glyph-name="pva__info" d="M512 836.266c-214.433 0-388.266-173.833-388.266-388.266s173.833-388.269 388.266-388.269c214.432 0 388.269 173.837 388.269 388.269s-173.837 388.266-388.269 388.266zM46.934 448c0 256.849 208.217 465.066 465.066 465.066 256.851 0 465.069-208.217 465.069-465.066 0-256.851-208.218-465.069-465.069-465.069-256.849 0-465.066 208.218-465.066 465.069zM473.601 618.666c0-21.208 17.192-38.4 38.4-38.4h0.374c21.208 0 38.4 17.192 38.4 38.4s-17.192 38.4-38.4 38.4h-0.374c-21.208 0-38.4-17.192-38.4-38.4zM512.001 486.4c-21.208 0-38.4-17.192-38.4-38.4v-170.669c0-21.203 17.192-38.4 38.4-38.4s38.4 17.197 38.4 38.4v170.669c0 21.208-17.192 38.4-38.4 38.4z" />
<glyph unicode="&#xe902;" glyph-name="pva__eye_off" d="M965.818 901.82c14.995-14.996 14.995-39.31 0-54.306l-853.331-853.332c-14.996-14.995-39.309-14.995-54.306 0s-14.996 39.309 0 54.304l139.087 139.085c-39.235 36.48-75.142 79.885-106.346 128.864-24.073 37.728-34.814 85.706-34.814 131.352 0 45.647 10.742 93.626 34.815 131.356 102.874 161.708 254.184 260.111 421.078 260.111 90.739 0 177.837-29.418 254.451-82.495l145.062 145.061c14.995 14.996 39.309 14.996 54.304 0zM711.098 701.405c-61.939 40.008-129.841 61.049-199.098 61.049-134.324 0-263.754-79.080-356.293-224.557-14.315-22.427-22.8-55.128-22.8-90.11s8.453-67.633 22.768-90.060c28.513-44.755 61.038-83.711 95.939-115.807l100.856 100.856c-19.974 30.15-31.617 66.257-31.617 105.224 0 105.688 85.459 191.147 191.146 191.147 38.967 0 75.075-11.643 105.224-31.617l93.873 93.875zM561.018 551.324c-14.843 7.088-31.424 11.023-49.018 11.023-63.272 0-114.346-51.075-114.346-114.347 0-17.594 3.934-34.175 11.023-49.018l152.342 152.342zM831.398 651.576c-16.525-13.292-19.142-37.464-5.856-53.99 15.078-18.742 29.562-38.479 42.726-59.228l0.058-0.084c14.317-22.427 22.765-55.077 22.765-90.060s-8.48-67.684-22.797-90.11c-92.538-145.476-221.971-224.555-356.294-224.555-47.025 0-93.601 9.933-137.845 28.563-19.546 8.23-42.062-0.947-50.292-20.493s0.943-42.061 20.489-50.291c53.037-22.33 109.713-34.579 167.648-34.579 166.893 0 318.202 98.4 421.075 260.109 24.077 37.731 34.816 85.709 34.816 131.356 0 45.642-10.739 93.614-34.803 131.342-14.989 23.607-31.213 45.668-47.699 66.165-13.293 16.525-37.466 19.146-53.99 5.855zM668.723 455.897c-20.858 3.846-40.881-9.944-44.726-30.8-8.205-44.5-45.020-81.315-89.52-89.52-20.856-3.846-34.646-23.871-30.8-44.729 3.846-20.851 23.871-34.643 44.727-30.797 75.82 13.978 137.139 75.299 151.123 151.119 3.84 20.856-9.946 40.881-30.803 44.727z" />
<glyph unicode="&#xe903;" glyph-name="pva__eye_on" horiz-adv-x="1170" d="M103.91 598.364c117.57 184.81 290.496 297.27 481.232 297.27 190.743 0 363.682-112.472 481.252-297.299 27.494-43.116 39.768-97.935 39.768-150.091 0-52.168-12.273-107.001-39.79-150.121-0.007-0.010-0.007-0.019-0.015-0.029l0.037 0.057c-0.007-0.010-0.015-0.019-0.022-0.029-117.57-184.811-290.494-297.268-481.23-297.268-190.746 0-363.679 112.472-481.25 297.296 0.012-0.019 0.025-0.038 0.037-0.057l-0.037 0.057c-27.5 43.116-39.771 97.935-39.771 150.092 0 52.168 12.276 107.001 39.789 150.12zM103.91 598.364c0.007 0.010 0.012 0.020 0.018 0.029l-0.037-0.058c0.007 0.010 0.012 0.019 0.018 0.029zM585.141 807.863c-153.513 0-301.433-90.377-407.192-256.636l-0.037-0.057c-16.36-25.631-26.021-62.945-26.021-102.925s9.661-77.295 26.021-102.925l0.037-0.058c105.759-166.259 253.679-256.634 407.192-256.634s301.43 90.375 407.195 256.634l0.037 0.058c16.355 25.63 26.017 62.945 26.017 102.925s-9.662 77.294-26.017 102.925l-0.037 0.057c-105.765 166.26-253.681 256.636-407.195 256.636zM585.141 578.682c-72.311 0-130.682-58.371-130.682-130.682s58.371-130.681 130.682-130.681c72.311 0 130.682 58.37 130.682 130.681s-58.371 130.682-130.682 130.682zM366.688 448c0 120.786 97.668 218.454 218.454 218.454s218.45-97.668 218.45-218.454c0-120.786-97.664-218.453-218.45-218.453s-218.454 97.667-218.454 218.453z" />
<glyph unicode="&#xe904;" glyph-name="pva__download" d="M512.001 947.2c-28.277 0-51.2-22.923-51.2-51.2v-474.803l-136.822 135.133c-20.118 19.87-52.536 19.668-72.406-0.45s-19.668-52.536 0.45-72.406l224-221.233c19.942-19.699 52.015-19.699 71.956 0l224.002 221.233c20.115 19.87 20.32 52.288 0.448 72.406s-52.288 20.32-72.403 0.45l-136.825-135.133v474.803c0 28.277-22.923 51.2-51.2 51.2zM64.001 349.867c-28.277 0-51.2-22.923-51.2-51.198v-149.338c0-110.752 89.782-200.531 200.534-200.531h597.334c110.752 0 200.531 89.779 200.531 200.531v149.338c0 28.275-22.925 51.198-51.2 51.198s-51.2-22.923-51.2-51.198v-149.338c0-54.195-43.936-98.131-98.131-98.131h-597.334c-54.198 0-98.134 43.936-98.134 98.131v149.338c0 28.275-22.923 51.198-51.2 51.198z" />
<glyph unicode="&#xe905;" glyph-name="pva__profile" horiz-adv-x="731" d="M365.715 916.114c-130.659 0-236.883-99.714-236.883-222.365 0-120.311 100.239-217.684 230.898-221.897 3.99 0.468 7.98 0.468 10.971 0h3.491c61.308 1.92 119.418 26.146 162.042 67.556s66.423 96.758 66.363 154.341c0 122.652-106.223 222.365-236.883 222.365zM619.056 347.374c-139.137 87.074-366.047 87.074-506.182 0-63.335-39.791-98.244-93.627-98.244-151.205 0-57.585 34.909-110.95 97.746-150.279 69.818-44.003 161.579-66.004 253.34-66.004s183.522 22.001 253.341 66.004c62.836 39.797 97.745 93.162 97.745 151.216-0.499 57.577-34.909 110.945-97.745 150.268z" />
<glyph unicode="&#xe906;" glyph-name="pva__filter" horiz-adv-x="1170" d="M487.668 828.343c-61.94 0-112.152-50.212-112.152-112.152s50.212-112.152 112.152-112.152c61.929 0 112.129 50.202 112.129 112.152s-50.199 112.152-112.129 112.152zM266.024 774.705c25.863 98.228 115.294 170.667 221.643 170.667 106.357 0 195.764-72.445 221.621-170.667h363.52c32.322 0 58.514-26.198 58.514-58.514s-26.192-58.514-58.514-58.514h-363.52c-25.857-98.223-115.264-170.666-221.621-170.666-106.35 0-195.781 72.438-221.643 170.666h-168.452c-32.317 0-58.515 26.198-58.515 58.514s26.198 58.514 58.515 58.514h168.452zM682.715 291.962c-61.929 0-112.129-50.202-112.129-112.155 0-61.945 50.199-112.15 112.129-112.15 61.937 0 112.15 50.213 112.15 112.15 0 61.942-50.213 112.155-112.15 112.155zM461.094 238.324c25.857 98.222 115.264 170.666 221.621 170.666 106.35 0 195.781-72.438 221.645-170.666h168.448c32.322 0 58.514-26.195 58.514-58.517 0-32.315-26.192-58.514-58.514-58.514h-168.448c-25.863-98.224-115.295-170.664-221.645-170.664-106.358 0-195.765 72.448-221.621 170.664h-363.521c-32.317 0-58.515 26.2-58.515 58.514 0 32.322 26.198 58.517 58.515 58.517h363.521z" />
<glyph unicode="&#xe907;" glyph-name="pva__bag" d="M412.047 910.92c20.022-19.967 20.067-52.385 0.1-72.408l-76.701-76.913h353.105l-76.698 76.913c-19.967 20.022-19.923 52.44 0.1 72.408s52.438 19.923 72.406-0.1l148.813-149.221h10.778c24.666 0 63.782-0.463 95.533-21.727 37.254-24.954 50.387-66.936 50.387-114.806 0-50.531-11.29-97.206-53.318-121.427-5.613-3.236-11.309-5.756-16.928-7.724l-66.349-345.971c-7.469-38.995-17.99-88.147-53.088-124.922-37.286-39.072-92.115-54.893-164.879-54.893h-257.28c-69.33 0-123.332 17.376-161.339 55.866-36.563 37.030-50.385 85.946-57.712 130.362l-55.464 339.864c-5.337 1.921-10.737 4.346-16.065 7.417-42.027 24.221-53.314 70.897-53.314 121.427 0 47.871 13.132 89.853 50.388 114.806 31.747 21.263 70.865 21.727 95.532 21.727h10.777l148.81 149.221c19.967 20.022 52.385 20.067 72.408 0.1zM208.521 488.533l51.489-315.509c0.002-0.013-0.003 0.019 0 0 6.326-38.33 15.762-61.12 29.541-75.078 12.34-12.493 35.778-25.414 88.475-25.414h257.28c59.926 0 81.257 13.197 90.799 23.194 11.731 12.288 18.701 32.256 26.592 73.478l61.242 319.33h-605.418zM140.15 652.336c-1.481-3.626-3.617-11.716-3.617-27.269 0-18.98 2.198-28.717 3.771-33.032 1.358-0.265 3.464-0.579 6.561-0.806 6.303-0.463 12.592-0.416 21.311-0.351 3.512 0.026 7.417 0.055 11.876 0.055h663.896c4.454 0 8.365-0.029 11.872-0.055 8.723-0.065 15.008-0.112 21.312 0.351 3.098 0.228 5.203 0.541 6.56 0.807 1.574 4.314 3.776 14.052 3.776 33.031 0 15.553-2.138 23.644-3.622 27.269-0.678 1.666-1.178 2.288-1.229 2.353-0.006 0.007 0.006-0.005 0 0-0.013 0.020-0.032 0.043-0.122 0.105-0.397 0.265-2.81 1.702-9.779 2.829-7.123 1.151-16.237 1.577-28.768 1.577h-663.896c-12.534 0-21.644-0.426-28.768-1.577-6.972-1.127-9.384-2.564-9.779-2.829-0.093-0.062-0.097-0.067-0.111-0.088-0.004-0.004 0.006 0.007 0 0-0.052-0.064-0.563-0.704-1.244-2.37zM416.426 413.867c-28.277 0-51.2-22.924-51.2-51.2v-151.467c0-28.275 22.923-51.2 51.2-51.2s51.2 22.925 51.2 51.2v151.467c0 28.276-22.923 51.2-51.2 51.2zM612.692 413.867c-28.276 0-51.2-22.924-51.2-51.2v-151.467c0-28.275 22.924-51.2 51.2-51.2 28.28 0 51.199 22.925 51.199 51.2v151.467c0 28.276-22.918 51.2-51.199 51.2z" />
<glyph unicode="&#xe908;" glyph-name="pva__chenge" horiz-adv-x="1092" d="M496.062 919.839c-19.956 22.617-54.468 24.774-77.084 4.818l-136.533-120.471c-11.75-10.367-18.48-25.281-18.48-40.951s6.73-30.583 18.48-40.951l136.533-120.47c22.616-19.956 57.128-17.799 77.084 4.818s17.799 57.128-4.818 77.085l-28.227 24.906h424.449c35.622 0 57.167-0.1 72.206-1.968 2.519-0.313 4.506-0.641 6.048-0.944 0.56-2.598 1.236-6.534 1.802-12.253 1.802-18.11 1.864-43.472 1.864-82.817v-469.839l109.227 0.055v472.562c0 35.773 0 66.661-2.403 90.845-2.376 23.919-7.905 53.21-28.576 76.315-21.811 24.375-50.906 31.541-74.506 34.471-22.603 2.807-51.091 2.804-82.48 2.801l-427.63-0.001 28.227 24.906c22.617 19.956 24.774 54.468 4.818 77.084zM1024 140.8l54.613 0.055c0-30.16-24.453-54.668-54.613-54.668s-54.613 24.453-54.613 54.613h54.613zM68.278 809.811c-30.162 0-54.614-24.451-54.614-54.613v-464.581c-0.002-35.77-0.003-66.661 2.401-90.848 2.378-23.914 7.906-53.207 28.579-76.315 21.81-24.371 50.906-31.539 74.503-34.468 22.602-2.806 51.091-2.806 82.479-2.799h427.633l-28.227-24.911c-22.617-19.954-24.773-54.463-4.818-77.080s54.468-24.774 77.085-4.82l136.533 120.47c11.749 10.37 18.48 25.279 18.48 40.953 0 15.667-6.731 30.583-18.48 40.946l-136.533 120.473c-22.617 19.956-57.129 17.799-77.085-4.818-19.956-22.615-17.799-57.13 4.818-77.085l28.227-24.904h-424.449c-35.622 0-57.168 0.096-72.203 1.966-2.52 0.314-4.51 0.642-6.053 0.942-0.56 2.601-1.23 6.533-1.799 12.254-1.8 18.111-1.865 43.472-1.865 82.818v461.804c0 30.162-24.452 54.613-54.613 54.613z" />
<glyph unicode="&#xe909;" glyph-name="pva__minus" horiz-adv-x="6144" d="M102.406 448.002c0 226.216 183.384 409.6 409.599 409.6h5119.995c226.202 0 409.6-183.384 409.6-409.6 0-226.213-183.398-409.602-409.6-409.602h-5119.995c-226.215 0-409.599 183.388-409.599 409.602z" />
<glyph unicode="&#xe90a;" glyph-name="pva__back" horiz-adv-x="1195" d="M471.507-34.722l-434.446 434.451c-26.66 26.66-26.66 69.884 0 96.544l434.446 434.446c26.66 26.66 69.884 26.66 96.544 0s26.66-69.883 0-96.543l-317.908-317.908h859.191c37.7 0 68.267-30.564 68.267-68.267s-30.566-68.267-68.267-68.267h-859.191l317.908-317.909c26.66-26.658 26.66-69.879 0-96.546-26.66-26.658-69.884-26.658-96.544 0z" />
<glyph unicode="&#xe90b;" glyph-name="pva__copy" d="M395.077 682.057h77.426c82.572 0 155.593-16.156 206.496-67.058s67.057-123.924 67.057-206.496v-77.426c64.154 1.339 96.183 15.357 113.503 32.677 18.22 18.217 32.783 52.716 32.783 123.744v184.32c0 71.029-14.563 105.527-32.783 123.745-18.213 18.217-52.714 32.781-123.743 32.781h-184.319c-71.028 0-105.527-14.564-123.744-32.781-17.319-17.319-31.337-49.354-32.677-113.505zM745.977 214.023c-1.309-78.395-18.172-147.529-66.977-196.337-50.903-50.9-123.924-67.057-206.496-67.057h-184.32c-82.571 0-155.593 16.157-206.495 67.057-50.903 50.907-67.059 123.926-67.059 206.497v184.32c0 82.572 16.156 155.594 67.059 206.496 48.805 48.805 117.945 65.668 196.339 66.975 1.307 78.395 18.17 147.534 66.975 196.34 50.902 50.902 123.924 67.058 206.495 67.058h184.319c82.571 0 155.597-16.156 206.497-67.058s67.057-123.924 67.057-206.496v-184.32c0-82.571-16.157-155.593-67.057-206.495-48.808-48.805-117.943-65.669-196.337-66.978zM164.44 532.247c-18.218-18.218-32.782-52.716-32.782-123.745v-184.32c0-71.029 14.564-105.523 32.782-123.743s52.716-32.783 123.744-32.783h184.32c71.029 0 105.527 14.563 123.745 32.783s32.781 52.714 32.781 123.743v184.32c0 71.029-14.564 105.527-32.781 123.745s-52.716 32.781-123.745 32.781h-184.32c-71.028 0-105.527-14.564-123.744-32.781z" />
<glyph unicode="&#xe90c;" glyph-name="pva__update" horiz-adv-x="896" d="M428.711 913.285c21.328-18.566 23.567-50.906 5.002-72.234l-26.099-29.983c13.102 1.128 26.563 1.732 40.387 1.732 232.652 0 421.119-188.47 421.119-421.12 0-232.653-188.467-421.12-421.119-421.12-232.65 0-421.12 188.467-421.12 421.12 0 86.434 26.246 167.084 70.893 234.054 15.685 23.528 47.473 29.885 71.002 14.2s29.885-47.474 14.2-71.002c-33.86-50.791-53.695-111.793-53.695-177.252 0-176.096 142.624-318.72 318.72-318.72s318.719 142.624 318.719 318.72c0 176.096-142.623 318.72-318.719 318.72-18.475 0-36.163-1.378-53.125-3.848l50.886-37.145c22.84-16.672 27.839-48.702 11.167-71.542s-48.703-27.839-71.542-11.167l-143.787 104.96c-11.583 8.456-19.089 21.381-20.692 35.633s2.845 28.521 12.261 39.338l123.307 141.653c18.566 21.328 50.906 23.568 72.235 5.002z" />
<glyph unicode="&#xe90d;" glyph-name="pva__search" d="M153.879 806.122c89.16 89.16 210.087 139.25 336.178 139.25 62.435 0 124.257-12.297 181.939-36.19s110.090-58.912 154.239-103.060c44.149-44.148 79.17-96.559 103.058-154.24 23.896-57.682 36.191-119.505 36.191-181.939s-12.295-124.257-36.191-181.938c-16.391-39.572-38.020-76.665-64.241-110.311l127.181-127.173c22.85-22.85 22.85-59.904 0-82.754s-59.904-22.85-82.754 0l-127.173 127.181c-33.646-26.222-70.738-47.85-110.31-64.241-57.682-23.896-119.504-36.191-181.939-36.191-126.091 0-247.019 50.088-336.178 139.249s-139.25 210.088-139.25 336.179c0 126.092 50.090 247.019 139.25 336.179zM490.058 828.343c-95.054 0-186.214-37.76-253.427-104.972s-104.973-158.374-104.973-253.428c0-95.054 37.76-186.214 104.973-253.425s158.373-104.975 253.427-104.975c47.066 0 93.671 9.267 137.154 27.282 43.483 18.008 82.993 44.412 116.271 77.692 33.28 33.279 59.685 72.789 77.692 116.272 18.015 43.483 27.282 90.089 27.282 137.154s-9.267 93.671-27.282 137.154c-18.008 43.483-44.412 82.993-77.692 116.274-33.278 33.28-72.787 59.679-116.271 77.691s-90.088 27.282-137.154 27.282z" />
<glyph unicode="&#xe90e;" glyph-name="pva__arrows" d="M714.068 922.966c-26.675-26.645-26.699-69.869-0.054-96.544l59.973-60.040h-688.653c-37.702 0-68.266-30.564-68.266-68.267s30.564-68.267 68.266-68.267h688.653l-59.973-60.041c-26.645-26.674-26.621-69.898 0.054-96.544s69.898-26.621 96.544 0.054l176.354 176.552c26.624 26.653 26.624 69.836 0 96.49l-176.354 176.552c-26.645 26.675-69.869 26.699-96.544 0.054zM309.935 422.735c-26.674 26.645-69.899 26.621-96.544-0.054l-176.356-176.551c-26.624-26.654-26.624-69.837 0-96.49l176.356-176.555c26.644-26.675 69.869-26.692 96.544-0.051s26.698 69.871 0.054 96.546l-59.973 60.038h688.651c37.7 0 68.267 30.564 68.267 68.267s-30.566 68.267-68.267 68.267h-688.651l59.973 60.040c26.644 26.675 26.621 69.899-0.054 96.544z" />
<glyph unicode="&#xe90f;" glyph-name="pva__enter" horiz-adv-x="1138" d="M927.862 54.765c-50.259 1.074-90.131 42.688-89.057 92.946l9.251 432.878-591.489-591.49c-35.546-35.546-93.178-35.546-128.725 0s-35.546 93.178 0 128.725l590.886 590.887-430.364-10.316c-50.256-1.204-91.973 38.559-93.177 88.815-1.205 50.257 38.559 91.973 88.815 93.178l657.716 15.765c24.849 0.596 48.861-8.997 66.46-26.55s27.253-41.54 26.723-66.39l-14.093-659.389c-1.074-50.259-42.687-90.131-92.946-89.057z" />
<glyph unicode="&#xe910;" glyph-name="pva__check" horiz-adv-x="1229" d="M1175.552 923.136c36.198-27.146 43.53-78.494 16.384-114.688l-614.4-819.2c-14.249-18.998-36.041-30.879-59.729-32.562s-46.941 6.996-63.734 23.789l-409.6 409.6c-31.992 31.992-31.992 83.86 0 115.852s83.86 31.992 115.852 0l342.811-342.811 557.728 743.636c27.146 36.195 78.49 43.53 114.688 16.384z" />
<glyph unicode="&#xe911;" glyph-name="pva__close" d="M931.965 867.965c31.992-31.992 31.992-83.86 0-115.852l-304.113-304.113 304.113-304.113c31.992-31.992 31.992-83.86 0-115.852s-83.86-31.992-115.852 0l-304.113 304.113-304.113-304.113c-31.992-31.992-83.86-31.992-115.852 0s-31.992 83.86 0 115.852l304.113 304.113-304.113 304.113c-31.992 31.992-31.992 83.86 0 115.852s83.86 31.992 115.852 0l304.113-304.113 304.113 304.113c31.992 31.992 83.86 31.992 115.852 0z" />
<glyph unicode="&#xe912;" glyph-name="pva__plus" d="M512 942.934c37.702 0 68.267-30.564 68.267-68.267v-358.4h358.4c37.7 0 68.267-30.564 68.267-68.267s-30.566-68.267-68.267-68.267h-358.4v-358.4c0-37.7-30.565-68.267-68.267-68.267s-68.267 30.566-68.267 68.267v358.4h-358.4c-37.703 0-68.267 30.565-68.267 68.267s30.564 68.267 68.267 68.267h358.4v358.4c0 37.703 30.564 68.267 68.267 68.267z" />
<glyph unicode="&#xe913;" glyph-name="pva__arrow_up" horiz-adv-x="2048" d="M158.256-64h1731.943c140.426 0 210.642 155.425 111.171 246.538l-757.724 694.055c-121.411 111.21-318.889 111.21-440.3 0l-757.725-694.055c-98.007-91.113-27.793-246.538 112.635-246.538z" />
<glyph unicode="&#xe914;" glyph-name="pva__arrow_down" horiz-adv-x="2048" d="M1889.743 960h-1731.942c-140.428 0-210.642-155.426-111.172-246.537l757.725-694.055c121.411-111.209 318.889-111.209 440.3 0l757.724 694.055c98.007 91.112 27.794 246.537-112.635 246.537z" />
</font>
</defs>
</svg>
